<?xml version="1.0" encoding="UTF-8"?>
<svg width="16px" height="16px" viewBox="0 0 16 16" version="1.1" xmlns="http://www.w3.org/2000/svg" xmlns:xlink="http://www.w3.org/1999/xlink">
    <!-- Generator: Sketch 63.1 (92452) - https://sketch.com -->
    <title>ic_assigned_to</title>
    <desc>Created with Sketch.</desc>
    <g id="Page-1" stroke="none" stroke-width="1" fill="none" fill-rule="evenodd">
        <g id="ic_assigned_to">
            <rect id="Rectangle" x="0" y="0" width="16" height="16"></rect>
            <g id="friends" transform="translate(1.000000, 3.000000)" fill="#B2B2B2" fill-rule="nonzero">
                <path d="M4.11389251,0.00376092203 C2.74907509,0.00376092203 1.63872908,1.18103546 1.63872908,2.62808994 C1.63872908,4.07514442 2.74907509,5.25241896 4.11389251,5.25241896 C5.47870993,5.25241896 6.58908243,4.07514442 6.58908243,2.62808994 C6.58908243,1.18103546 5.47873642,0.00376092203 4.11389251,0.00376092203 Z" id="Path"></path>
                <path d="M9.74126481,0.379296933 C9.73567639,0.379296933 9.73000852,0.379296933 9.72442011,0.379349903 C9.15164758,0.384090784 8.61664318,0.625928665 8.21798544,1.06036813 C7.82631984,1.48712684 7.61335101,2.05012627 7.6182508,2.64562325 C7.62317708,3.24112023 7.84541579,3.80051766 8.24404704,4.22078745 C8.64583005,4.64431495 9.17805349,4.87690943 9.74446953,4.87690943 C9.75016389,4.87690943 9.75585824,4.87690943 9.76157908,4.87685646 C10.3343516,4.87211558 10.869356,4.63025122 11.2680138,4.19583824 C11.6596794,3.76907953 11.8726482,3.20608009 11.8677484,2.61055663 C11.8575515,1.37649746 10.9052702,0.379296933 9.74126481,0.379296933 Z" id="Path"></path>
                <path d="M9.84567012,5.30655505 L9.64014368,5.30655505 C8.68296253,5.30655505 7.80947515,5.67046398 7.14998952,6.26691444 C7.31499336,6.39351449 7.47205158,6.53150325 7.62089934,6.68035101 C8.06002671,7.11947838 8.40486619,7.63117566 8.64588302,8.20114075 C8.86306302,8.71442715 8.98701454,9.25525833 9.01588359,9.81224559 L13.5605076,9.81224559 L13.5605076,9.02112769 C13.5605076,6.97301431 11.8940484,5.30655505 9.84567012,5.30655505 Z" id="Path"></path>
                <path d="M8.21973347,9.81224559 C8.14477989,8.60477773 7.53270307,7.54271454 6.61922278,6.86204062 C5.95470494,6.36676427 5.13048033,6.07357126 4.23765863,6.07357126 L3.99028531,6.07357126 C1.78643797,6.07357126 0,7.86000923 0,10.0638566 L0,10.5374149 L8.22767908,10.5374149 L8.22767908,10.0638566 C8.22767908,9.97936825 8.22503055,9.89540964 8.21973347,9.81224559 Z" id="Path"></path>
            </g>
        </g>
    </g>
</svg>