<?xml version="1.0" encoding="UTF-8"?>
<svg width="16px" height="16px" viewBox="0 0 16 16" version="1.1" xmlns="http://www.w3.org/2000/svg" xmlns:xlink="http://www.w3.org/1999/xlink">
    <!-- Generator: Sketch 63.1 (92452) - https://sketch.com -->
    <title>ic_destination</title>
    <desc>Created with Sketch.</desc>
    <g id="Page-1" stroke="none" stroke-width="1" fill="none" fill-rule="evenodd">
        <g id="ic_destination">
            <rect id="Rectangle" x="0" y="0" width="16" height="16"></rect>
            <g id="placeholder-(2)" transform="translate(3.000000, 1.000000)" fill="#B2B2B2" fill-rule="nonzero">
                <path d="M5.11825781,0 C2.29602734,0 0,2.33728906 0,5.21021484 C0,6.81720703 0.812765625,8.76771875 2.41579297,11.0075547 C3.58889453,12.6467578 4.74487891,13.8158125 4.79352344,13.8648125 C4.8829375,13.9548281 5.00057031,13.9999727 5.11833984,13.9999727 C5.23269141,13.9999727 5.347125,13.9573711 5.43582812,13.8719219 C5.48458203,13.8249727 6.64349219,12.70325 7.81880859,11.0866875 C9.42312109,8.88001953 10.2365703,6.90290234 10.2365703,5.2101875 C10.2365703,2.33728906 7.94043359,0 5.11825781,0 Z M5.11825781,7.45953906 C3.73849219,7.45953906 2.61600391,6.33702344 2.61600391,4.95728516 C2.61600391,3.57754687 3.73851953,2.45503125 5.11825781,2.45503125 C6.49799609,2.45503125 7.62051172,3.57754687 7.62051172,4.95728516 C7.62051172,6.33702344 6.49796875,7.45953906 5.11825781,7.45953906 Z" id="Shape"></path>
            </g>
        </g>
    </g>
</svg>