<?xml version="1.0" encoding="UTF-8"?>
<svg width="48px" height="48px" viewBox="0 0 48 48" version="1.1" xmlns="http://www.w3.org/2000/svg" xmlns:xlink="http://www.w3.org/1999/xlink">
    <!-- Generator: Sketch 63.1 (92452) - https://sketch.com -->
    <title>ic_location_yellow_map</title>
    <desc>Created with Sketch.</desc>
    <g id="Page-1" stroke="none" stroke-width="1" fill="none" fill-rule="evenodd">
        <g id="ic_location_yellow_map">
            <rect id="Rectangle" x="0" y="0" width="48" height="48"></rect>
            <g id="Group" transform="translate(12.000000, 6.000000)">
                <ellipse id="Oval" fill="#000000" opacity="0.100000001" cx="12" cy="35" rx="10" ry="2"></ellipse>
                <g id="placeholder-(2)" fill="#FEA400" fill-rule="nonzero">
                    <path d="M12.3374338,0 C5.564081,0 0.0536156226,5.6094935 0.0536156226,12.5045151 C0.0536156226,16.3612961 2.00425303,21.042524 5.85151848,26.4181301 C8.66696211,30.3522174 11.4413245,33.1579485 11.5580714,33.2755485 C11.7726651,33.491586 12.0549838,33.5999328 12.3376307,33.5999328 C12.6120744,33.5999328 12.886715,33.4976891 13.0996025,33.292611 C13.2166119,33.1799329 15.9979961,30.4877986 18.8187554,26.6080488 C22.6691052,21.3120459 24.6213833,16.5669649 24.6213833,12.5044494 C24.6213833,5.6094935 19.1106554,0 12.3374338,0 Z M12.3374338,17.9028929 C9.02599647,17.9028929 6.33202471,15.2088556 6.33202471,11.8974838 C6.33202471,8.58611211 9.02606209,5.89207473 12.3374338,5.89207473 C15.6488055,5.89207473 18.3428429,8.58611211 18.3428429,11.8974838 C18.3428429,15.2088556 15.6487399,17.9028929 12.3374338,17.9028929 Z" id="Shape"></path>
                </g>
            </g>
        </g>
    </g>
</svg>