<?xml version="1.0" encoding="UTF-8"?>
<svg width="24px" height="24px" viewBox="0 0 24 24" version="1.1" xmlns="http://www.w3.org/2000/svg" xmlns:xlink="http://www.w3.org/1999/xlink">
    <!-- Generator: Sketch 63.1 (92452) - https://sketch.com -->
    <title>ic_location_blue_1</title>
    <desc>Created with Sketch.</desc>
    <g id="Page-1" stroke="none" stroke-width="1" fill="none" fill-rule="evenodd">
        <g id="ic_location_blue_1">
            <rect id="Rectangle" x="0" y="0" width="24" height="24"></rect>
            <g id="placeholder-(2)" transform="translate(6.000000, 4.000000)" fill="#2C81FF" fill-rule="nonzero">
                <path d="M5.87496875,0 C2.6495625,0 0.02553125,2.6711875 0.02553125,5.95453125 C0.02553125,7.79109375 0.95440625,10.02025 2.7864375,12.5800625 C4.127125,14.4534375 5.44825,15.7895 5.50384375,15.8455 C5.60603125,15.948375 5.74046875,15.9999688 5.8750625,15.9999688 C6.00575,15.9999688 6.13653125,15.9512813 6.23790625,15.853625 C6.293625,15.7999688 7.61809375,14.518 8.9613125,12.6705 C10.7948125,10.1485937 11.7244687,7.88903125 11.7244687,5.9545 C11.7244687,2.6711875 9.1003125,0 5.87496875,0 Z M5.87496875,8.5251875 C4.29809375,8.5251875 3.01525,7.2423125 3.01525,5.66546875 C3.01525,4.088625 4.298125,2.80575 5.87496875,2.80575 C7.4518125,2.80575 8.7346875,4.088625 8.7346875,5.66546875 C8.7346875,7.2423125 7.45178125,8.5251875 5.87496875,8.5251875 Z" id="Shape"></path>
            </g>
        </g>
    </g>
</svg>