<?xml version="1.0" encoding="UTF-8"?>
<svg width="16px" height="16px" viewBox="0 0 16 16" version="1.1" xmlns="http://www.w3.org/2000/svg" xmlns:xlink="http://www.w3.org/1999/xlink">
    <!-- Generator: Sketch 63.1 (92452) - https://sketch.com -->
    <title>ic_recipient</title>
    <desc>Created with Sketch.</desc>
    <g id="Page-1" stroke="none" stroke-width="1" fill="none" fill-rule="evenodd">
        <g id="ic_recipient">
            <rect id="Rectangle" x="0" y="0" width="16" height="16"></rect>
            <path d="M8.39338371,8.72521316 C9.52970224,8.72521316 10.5787154,9.09836789 11.4244654,9.72871962 C12.5870766,10.5950319 13.3660835,11.9467487 13.461479,13.4835259 C13.4682207,13.5893711 13.4715916,13.6962275 13.4715916,13.8037581 L13.4715916,13.8037581 L13.4715916,14.4064687 L3,14.4064687 L3,13.8037581 C3,10.9988615 5.27364832,8.72521316 8.07854494,8.72521316 L8.07854494,8.72521316 Z M8.2358632,1 C9.97293726,1 11.3861049,2.49834941 11.3861049,4.34005511 C11.3861049,6.18176082 9.97290355,7.68011023 8.2358632,7.68011023 C6.49882285,7.68011023 5.08565519,6.18176082 5.08565519,4.34005511 C5.08565519,2.49834941 6.49882285,1 8.2358632,1 Z" id="Combined-Shape" fill="#B2B2B2" fill-rule="nonzero"></path>
        </g>
    </g>
</svg>