<?xml version="1.0" encoding="UTF-8"?>
<svg width="32px" height="32px" viewBox="0 0 32 32" version="1.1" xmlns="http://www.w3.org/2000/svg" xmlns:xlink="http://www.w3.org/1999/xlink">
    <!-- Generator: Sketch 63.1 (92452) - https://sketch.com -->
    <title>ic_settings</title>
    <desc>Created with Sketch.</desc>
    <g id="Page-1" stroke="none" stroke-width="1" fill="none" fill-rule="evenodd">
        <g id="ic_settings">
            <rect id="Rectangle" x="0" y="0" width="32" height="32"></rect>
            <g id="settings-(3)" transform="translate(5.000000, 5.000000)" fill="#B2B2B2" fill-rule="nonzero">
                <path d="M20.6400011,8.64000047 L18.842881,8.64000047 C18.692161,8.14800045 18.494881,7.67280042 18.255361,7.22016039 L19.5249611,5.95056033 C19.7966411,5.67888031 19.9464011,5.31696029 19.9464011,4.93152027 C19.9464011,4.54656025 19.7966411,4.18464023 19.5249611,3.91296021 L18.166561,2.55456014 C17.623681,2.01168011 16.6732809,2.01024011 16.1294409,2.55456014 L14.8598408,3.82416021 C14.4076808,3.5846402 13.9320008,3.38784019 13.4400007,3.23664018 L13.4400007,1.44000008 C13.4400007,0.646080035 12.7939207,0 12,0 L10.0800006,0 C9.28608051,0 8.64000047,0.646080035 8.64000047,1.44000008 L8.64000047,3.23712018 C8.14800045,3.38832019 7.67280042,3.5851202 7.22016039,3.82464021 L5.95008033,2.55504014 C5.38848029,1.99344011 4.47456024,1.99344011 3.91296021,2.55504014 L2.55408014,3.91344021 C1.99296011,4.47504024 1.99296011,5.38896029 2.55408014,5.95056033 L3.82368021,7.22064039 C3.5841602,7.67280042 3.38736019,8.14848045 3.23616018,8.64048047 L1.44000008,8.64048047 C0.646080035,8.64048047 0,9.28656051 0,10.0804806 L0,12.0004807 C0,12.7939207 0.646080035,13.4400007 1.44000008,13.4400007 L3.23712018,13.4400007 C3.38832019,13.9320008 3.5851202,14.4072008 3.82464021,14.8598408 L2.55504014,16.1299209 C1.99344011,16.6915209 1.99344011,17.605441 2.55504014,18.167041 L3.91344021,19.5259211 C4.47504024,20.0870411 5.38896029,20.0870411 5.95056033,19.5259211 L7.22064039,18.256321 C7.67280042,18.495841 8.14848045,18.692641 8.64048047,18.843841 L8.64048047,20.6400011 C8.64048047,21.4339212 9.28656051,22.0800012 10.0804806,22.0800012 L12.0004807,22.0800012 C12.7944007,22.0800012 13.4404807,21.4339212 13.4404807,20.6400011 L13.4404807,18.842881 C13.9324808,18.691681 14.4081608,18.494881 14.8603208,18.255361 L16.1299209,19.5254411 C16.6742409,20.0692811 17.624641,20.0683211 18.167041,19.5254411 L19.5254411,18.167041 C19.7971211,17.895361 19.9468811,17.533441 19.9468811,17.1484809 C19.9468811,16.7630409 19.7971211,16.4016009 19.5254411,16.1299209 L18.255841,14.8598408 C18.495361,14.4076808 18.692161,13.9320008 18.843361,13.4400007 L20.6400011,13.4400007 C21.4339212,13.4400007 22.0800012,12.7939207 22.0800012,12 L22.0800012,10.0800006 C22.0800012,9.28608051 21.4339212,8.64000047 20.6400011,8.64000047 Z M21.1200012,12.0000007 C21.1200012,12.2644807 20.9049611,12.4800007 20.6400011,12.4800007 L18.480001,12.4800007 C18.261121,12.4800007 18.070081,12.6283207 18.015361,12.8400007 C17.845441,13.4952007 17.586721,14.1206408 17.2454409,14.6985608 C17.1345609,14.8872008 17.1648009,15.1272008 17.3193609,15.2817608 L18.845761,16.8086409 C18.936001,16.8988809 18.985921,17.0193609 18.985921,17.1484809 C18.985921,17.2776009 18.936001,17.398081 18.845761,17.488321 L17.487361,18.846721 C17.3068809,19.027201 16.9886409,19.027201 16.8076809,18.846721 L15.2812808,17.3203209 C15.1267208,17.1652809 14.8867208,17.1355209 14.6976008,17.2464009 C14.1206408,17.587201 13.4952007,17.846401 12.8395207,18.015841 C12.6283207,18.070081 12.4800007,18.261121 12.4800007,18.480001 L12.4800007,20.6400011 C12.4800007,20.9044811 12.2649607,21.1200012 12.0000007,21.1200012 L10.0800006,21.1200012 C9.81552054,21.1200012 9.60000052,20.9044811 9.60000052,20.6400011 L9.60000052,18.480001 C9.60000052,18.261121 9.45168052,18.070081 9.2400005,18.015361 C8.58480047,17.845921 7.95936043,17.587201 7.3814404,17.2459209 C7.3056004,17.2008009 7.22160039,17.1792009 7.13760039,17.1792009 C7.01328038,17.1792009 6.89040038,17.2272009 6.79776037,17.3198409 L5.27136029,18.846241 C5.08368028,19.033441 4.77936026,19.033441 4.59168025,18.846241 L3.23328018,17.487841 C3.04560017,17.3001609 3.04560017,16.9953609 3.23328018,16.8081609 L4.75968026,15.2817608 C4.91472027,15.1267208 4.94496027,14.8867208 4.83360026,14.6985608 C4.49280025,14.1206408 4.23360023,13.4956807 4.06416022,12.8400007 C4.00992022,12.6283207 3.81888021,12.4800007 3.6000002,12.4800007 L1.44000008,12.4800007 C1.17552006,12.4800007 0.960000052,12.2644807 0.960000052,12.0000007 L0.960000052,10.0800006 C0.960000052,9.81552054 1.17552006,9.60000052 1.44000008,9.60000052 L3.6000002,9.60000052 C3.81888021,9.60000052 4.00992022,9.45168052 4.06464022,9.2400005 C4.23408023,8.58480047 4.49280025,7.95936043 4.83408026,7.3814404 C4.94544027,7.19280039 4.91520027,6.95280038 4.76016026,6.79824037 L3.23376018,5.27184029 C3.04656017,5.08464028 3.04656017,4.77984026 3.23376018,4.59216025 L4.59216025,3.23376018 C4.77984026,3.04608017 5.08416028,3.04656017 5.27184029,3.23376018 L6.79824037,4.76016026 C6.95328038,4.91520027 7.19280039,4.94592027 7.3814404,4.83408026 C7.95936043,4.49328025 8.58432047,4.23408023 9.2400005,4.06464022 C9.45168052,4.00992022 9.60000052,3.81888021 9.60000052,3.6000002 L9.60000052,1.44000008 C9.60000052,1.17552006 9.81552054,0.960000052 10.0800006,0.960000052 L12.0000007,0.960000052 C12.2649607,0.960000052 12.4800007,1.17552006 12.4800007,1.44000008 L12.4800007,3.6000002 C12.4800007,3.81888021 12.6283207,4.00992022 12.8400007,4.06464022 C13.4956807,4.23408023 14.1211208,4.49328025 14.6980808,4.83408026 C14.8872008,4.94544027 15.1272008,4.91568027 15.2817608,4.76016026 L16.8081609,3.23376018 C16.9891209,3.05232017 17.3073609,3.05280017 17.487841,3.23376018 L18.846241,4.59216025 C18.936481,4.68240026 18.986401,4.80336026 18.986401,4.93200027 C18.986401,5.06064028 18.936481,5.18160028 18.846241,5.27184029 L17.3198409,6.79824037 C17.1652809,6.95328038 17.1345609,7.19328039 17.2459209,7.3814404 C17.587201,7.95936043 17.845921,8.58432047 18.015841,9.2400005 C18.070081,9.45168052 18.261121,9.60000052 18.480001,9.60000052 L20.6400011,9.60000052 C20.9049611,9.60000052 21.1200012,9.81552054 21.1200012,10.0800006 L21.1200012,12.0000007 L21.1200012,12.0000007 Z" id="Shape"></path>
                <path d="M11.0400006,6.72000037 C8.65824047,6.72000037 6.72000037,8.65824047 6.72000037,11.0400006 C6.72000037,13.4217607 8.65824047,15.3600008 11.0400006,15.3600008 C13.4222407,15.3600008 15.3600008,13.4217607 15.3600008,11.0400006 C15.3600008,8.65824047 13.4222407,6.72000037 11.0400006,6.72000037 Z M11.0400006,14.4000008 C9.1872005,14.4000008 7.68000042,12.8928007 7.68000042,11.0400006 C7.68000042,9.1872005 9.1872005,7.68000042 11.0400006,7.68000042 C12.8923207,7.68000042 14.4000008,9.1872005 14.4000008,11.0400006 C14.4000008,12.8928007 12.8923207,14.4000008 11.0400006,14.4000008 Z" id="Shape"></path>
            </g>
        </g>
    </g>
</svg>