<?xml version="1.0" encoding="UTF-8"?>
<svg width="16px" height="16px" viewBox="0 0 16 16" version="1.1" xmlns="http://www.w3.org/2000/svg" xmlns:xlink="http://www.w3.org/1999/xlink">
    <!-- Generator: Sketch 63.1 (92452) - https://sketch.com -->
    <title>ic_time</title>
    <desc>Created with Sketch.</desc>
    <g id="Page-1" stroke="none" stroke-width="1" fill="none" fill-rule="evenodd">
        <g id="ic_time">
            <rect id="Rectangle" x="0" y="0" width="16" height="16"></rect>
            <g id="time-(1)" transform="translate(8.000000, 8.000000) scale(-1, 1) translate(-8.000000, -8.000000) translate(2.000000, 2.000000)" fill="#B2B2B2" fill-rule="nonzero">
                <path d="M5.99831799,0 C2.68553975,0 0,2.68553975 0,5.99831799 C0,9.31109623 2.68553975,11.996636 5.99831799,11.996636 C9.31109623,11.996636 11.996636,9.31109623 11.996636,5.99831799 C11.9931213,2.68702092 9.30964017,0.00353974895 5.99831799,0 Z M6.42677824,5.99831799 C6.42677824,6.23495397 6.23495397,6.42677824 5.99831799,6.42677824 L2.5707113,6.42677824 C2.33407531,6.42677824 2.14225105,6.23495397 2.14225105,5.99831799 C2.14225105,5.76168201 2.33407531,5.56985774 2.5707113,5.56985774 L5.56988285,5.56985774 L5.56988285,2.5707113 C5.56988285,2.33407531 5.76170711,2.14225105 5.9983431,2.14225105 C6.23497908,2.14225105 6.42677824,2.33407531 6.42677824,2.5707113 L6.42677824,5.99831799 Z" id="Shape"></path>
            </g>
        </g>
    </g>
</svg>