<?xml version="1.0" encoding="UTF-8"?>
<svg width="16px" height="16px" viewBox="0 0 16 16" version="1.1" xmlns="http://www.w3.org/2000/svg" xmlns:xlink="http://www.w3.org/1999/xlink">
    <!-- Generator: Sketch 63.1 (92452) - https://sketch.com -->
    <title>ic_task_type</title>
    <desc>Created with Sketch.</desc>
    <g id="Page-1" stroke="none" stroke-width="1" fill="none" fill-rule="evenodd">
        <g id="ic_task_type">
            <rect id="Rectangle" x="0" y="0" width="16" height="16"></rect>
            <g id="Group-16" transform="translate(2.000000, 2.000000)" fill="#B2B2B2">
                <path d="M1,0 L11,0 C11.5522847,-1.01453063e-16 12,0.44771525 12,1 L12,3 L12,3 L0,3 L0,1 C-6.76353751e-17,0.44771525 0.44771525,1.01453063e-16 1,0 Z" id="Rectangle"></path>
                <path d="M1,4 L6,4 L6,4 L6,13 L1,13 C0.44771525,13 6.76353751e-17,12.5522847 0,12 L0,5 C-6.76353751e-17,4.44771525 0.44771525,4 1,4 Z" id="Rectangle-Copy"></path>
                <path d="M8,4 L12,4 L12,4 L12,13 L8,13 C7.44771525,13 7,12.5522847 7,12 L7,5 C7,4.44771525 7.44771525,4 8,4 Z" id="Rectangle-Copy" transform="translate(9.500000, 8.500000) scale(-1, 1) translate(-9.500000, -8.500000) "></path>
            </g>
        </g>
    </g>
</svg>