<?xml version="1.0" encoding="UTF-8"?>
<svg width="16px" height="16px" viewBox="0 0 16 16" version="1.1" xmlns="http://www.w3.org/2000/svg" xmlns:xlink="http://www.w3.org/1999/xlink">
    <!-- Generator: Sketch 63.1 (92452) - https://sketch.com -->
    <title>ic_task_scheduled</title>
    <desc>Created with Sketch.</desc>
    <g id="Page-1" stroke="none" stroke-width="1" fill="none" fill-rule="evenodd">
        <g id="ic_task_scheduled">
            <rect id="Rectangle" x="0" y="0" width="16" height="16"></rect>
            <g id="calendar-(5)" transform="translate(2.000000, 2.000000)" fill="#B2B2B2" fill-rule="nonzero">
                <path d="M11.0162005,0.988000042 L9.88000042,0.988000042 L9.88000042,0.395200017 C9.88000042,0.176950808 9.70307431,0 9.4848004,0 C9.26652649,0 9.08960039,0.176950808 9.08960039,0.395200017 L9.08960039,0.988000042 L3.55680015,0.988000042 L3.55680015,0.395200017 C3.55680015,0.176950808 3.37987404,0 3.16160013,0 C2.94332623,0 2.76640012,0.176950808 2.76640012,0.395200017 L2.76640012,0.988000042 L1.63020007,0.988000042 C0.731292931,0.988000042 0,1.71929297 0,2.61820011 L0,11.0162005 C0,11.9151076 0.731292931,12.6464005 1.63020007,12.6464005 L11.0162005,12.6464005 C11.9151076,12.6464005 12.6464005,11.9151076 12.6464005,11.0162005 L12.6464005,2.61820011 C12.6464005,1.71929297 11.9151076,0.988000042 11.0162005,0.988000042 Z M1.63020007,1.77840008 L2.76640012,1.77840008 L2.76640012,2.17360009 C2.76640012,2.3918493 2.94332623,2.56880011 3.16160013,2.56880011 C3.37987404,2.56880011 3.55680015,2.3918493 3.55680015,2.17360009 L3.55680015,1.77840008 L9.08960039,1.77840008 L9.08960039,2.17360009 C9.08960039,2.3918493 9.26652649,2.56880011 9.4848004,2.56880011 C9.70307431,2.56880011 9.88000042,2.3918493 9.88000042,2.17360009 L9.88000042,1.77840008 L11.0162005,1.77840008 C11.4792761,1.77840008 11.8560005,2.15512449 11.8560005,2.61820011 L11.8560005,3.55680015 L0.790400034,3.55680015 L0.790400034,2.61820011 C0.790400034,2.15512449 1.16712445,1.77840008 1.63020007,1.77840008 Z" id="Shape"></path>
            </g>
        </g>
    </g>
</svg>