<?xml version="1.0" encoding="UTF-8"?>
<svg width="24px" height="24px" viewBox="0 0 24 24" version="1.1" xmlns="http://www.w3.org/2000/svg" xmlns:xlink="http://www.w3.org/1999/xlink">
    <!-- Generator: Sketch 63.1 (92452) - https://sketch.com -->
    <title>ic_team</title>
    <desc>Created with Sketch.</desc>
    <g id="Page-1" stroke="none" stroke-width="1" fill="none" fill-rule="evenodd">
        <g id="ic_team">
            <rect id="Rectangle" x="0" y="0" width="24" height="24"></rect>
            <g id="friends" transform="translate(4.000000, 6.000000)" fill="#B2B2B2" fill-rule="nonzero">
                <path d="M4.99544091,0.0045668339 C3.33816262,0.0045668339 1.98988531,1.43411449 1.98988531,3.19125207 C1.98988531,4.94838965 3.33816262,6.37793731 4.99544091,6.37793731 C6.6527192,6.37793731 8.00102867,4.94838965 8.00102867,3.19125207 C8.00102867,1.43411449 6.65275136,0.0045668339 4.99544091,0.0045668339 Z" id="Path"></path>
                <path d="M11.8286787,0.460574847 C11.8218928,0.460574847 11.8150104,0.460574847 11.8082244,0.460639169 C11.1127149,0.466395952 10.4630667,0.760056236 9.97898232,1.28758987 C9.50338838,1.80579688 9.24478337,2.48943905 9.25073312,3.21254252 C9.25671503,3.935646 9.52657632,4.6149143 10.0106285,5.12524191 C10.4985079,5.63952529 11.1447792,5.92196146 11.8325701,5.92196146 C11.8394847,5.92196146 11.8463993,5.92196146 11.853346,5.92189713 C12.5488555,5.91614035 13.1985037,5.62244791 13.6825881,5.09494643 C14.1581821,4.57673943 14.4167871,3.89309726 14.4108373,3.16996162 C14.3984554,1.67146121 13.2421138,0.460574847 11.8286787,0.460574847 Z" id="Path"></path>
                <path d="M11.9554566,6.44367399 L11.7058887,6.44367399 C10.5435974,6.44367399 9.48293411,6.88556341 8.68213014,7.60982467 C8.88249193,7.76355331 9.07320549,7.93111109 9.2539492,8.11185479 C9.7871753,8.64508089 10.2059089,9.26642759 10.4985722,9.95852805 C10.7622908,10.5818044 10.9128034,11.238528 10.9478586,11.9148696 L16.4663307,11.9148696 L16.4663307,10.9542265 C16.4663307,8.46723166 14.442773,6.44367399 11.9554566,6.44367399 Z" id="Path"></path>
                <path d="M9.98110493,11.9148696 C9.89008986,10.4486587 9.14685373,9.15901051 8.03762766,8.3324779 C7.23071314,7.7310709 6.22986898,7.37505082 5.14572834,7.37505082 L4.84534644,7.37505082 C2.1692461,7.37505082 0,9.54429692 0,12.2203973 L0,12.7954324 L9.99075317,12.7954324 L9.99075317,12.2203973 C9.99075317,12.1178043 9.98753709,12.0158546 9.98110493,11.9148696 Z" id="Path"></path>
            </g>
        </g>
    </g>
</svg>