<?xml version="1.0" encoding="UTF-8"?>
<svg width="24px" height="24px" viewBox="0 0 24 24" version="1.1" xmlns="http://www.w3.org/2000/svg" xmlns:xlink="http://www.w3.org/1999/xlink">
    <!-- Generator: Sketch 63.1 (92452) - https://sketch.com -->
    <title>ic_unassigned_tasks</title>
    <desc>Created with Sketch.</desc>
    <g id="Page-1" stroke="none" stroke-width="1" fill="none" fill-rule="evenodd">
        <g id="ic_unassigned_tasks">
            <rect id="Rectangle" x="0" y="0" width="24" height="24"></rect>
            <g id="suitcase-with-white-details" transform="translate(4.000000, 5.000000)" fill="#B2B2B2" fill-rule="nonzero">
                <path d="M0.602943982,2.95935991 C0.200959994,3.3613759 0,3.84255989 0,4.40281587 L0,12.0039996 C0,12.5644796 0.200959994,13.0456636 0.602943982,13.4475516 C1.00495997,13.8496316 1.48614396,14.0504956 2.04649594,14.0504956 L2.63116792,14.0504956 L2.63116792,2.35628793 L2.04649594,2.35628793 C1.48601596,2.35628793 1.00486397,2.55734392 0.602943982,2.95935991 Z" id="Path"></path>
                <path d="M11.6942717,0.894559973 C11.6942717,0.650911981 11.6090557,0.443871987 11.4384637,0.273311992 C11.2680637,0.102751997 11.0608637,0.0175359995 10.8173117,0.0175359995 L5.55484783,0.0175359995 C5.31126384,0.0175359995 5.10419185,0.102751997 4.93359985,0.273311992 C4.76303986,0.443775987 4.67779186,0.650879981 4.67779186,0.894559973 L4.67779186,2.35628793 L3.5083519,2.35628793 L3.5083519,14.0504956 L12.8638396,14.0504956 L12.8638396,2.35628793 L11.6942717,2.35628793 L11.6942717,0.894559973 Z M10.5249277,2.35628793 L5.84719983,2.35628793 L5.84719983,1.18691196 L10.5249277,1.18691196 L10.5249277,2.35628793 Z" id="Shape"></path>
                <path d="M15.7691195,2.95935991 C15.3671035,2.55737592 14.8858876,2.35628793 14.3255676,2.35628793 L13.7407996,2.35628793 L13.7407996,14.0504956 L14.3255676,14.0504956 C14.8859196,14.0504956 15.3671035,13.8496636 15.7691195,13.4475516 C16.1710075,13.0456316 16.3720635,12.5644476 16.3720635,12.0039996 L16.3720635,4.40281587 C16.3720315,3.84255989 16.1709755,3.3613759 15.7691195,2.95935991 Z" id="Path"></path>
            </g>
        </g>
    </g>
</svg>