<?xml version="1.0" encoding="UTF-8"?>
<svg width="32px" height="32px" viewBox="0 0 32 32" version="1.1" xmlns="http://www.w3.org/2000/svg" xmlns:xlink="http://www.w3.org/1999/xlink">
    <!-- Generator: Sketch 63.1 (92452) - https://sketch.com -->
    <title>ic_upload</title>
    <desc>Created with Sketch.</desc>
    <g id="Page-1" stroke="none" stroke-width="1" fill="none" fill-rule="evenodd">
        <g id="ic_upload">
            <rect id="Rectangle" x="0" y="0" width="32" height="32"></rect>
            <g id="Group-14" transform="translate(7.000000, 6.000000)" stroke="#B2B2B2">
                <path d="M13.722426,0.5 L2,0.5 C1.58578644,0.5 1.21078644,0.667893219 0.939339828,0.939339828 C0.667893219,1.21078644 0.5,1.58578644 0.5,2 L0.5,19 C0.5,19.4142136 0.667893219,19.7892136 0.939339828,20.0606602 C1.21078644,20.3321068 1.58578644,20.5 2,20.5 L16,20.5 C16.4142136,20.5 16.7892136,20.3321068 17.0606602,20.0606602 C17.3321068,19.7892136 17.5,19.4142136 17.5,19 L17.5,5.55200454 L13.722426,0.5 Z" id="Rectangle"></path>
                <path d="M13.7485336,0.5 L12.8210377,0.5 L13.3210377,5.78102853 L17.5,5.55110611 L13.7485336,0.5 Z" id="Path"></path>
                <polyline id="Path-3" stroke-linecap="round" stroke-linejoin="round" points="6 8.5 9 5.5 12 8.5"></polyline>
                <line x1="9" y1="6.05731996" x2="9" y2="15" id="Path-2" stroke-linecap="round"></line>
            </g>
        </g>
    </g>
</svg>